<?xml version="1.0" encoding="UTF-8"?>
<svg id="Layer_2" xmlns="http://www.w3.org/2000/svg" viewBox="0 0 43.21 22.04">
  <defs>
    <style>
      .cls-1 {
        fill: #35534a;
      }
    </style>
  </defs>
  <g id="Layer_1-2" data-name="Layer_1">
    <path class="cls-1" d="M42.1,5.48c-.77-1.68-1.88-3.01-3.38-4-1.51-.99-3.51-1.48-5.48-1.48s-5.22.97-7.58,3.33c-2.36,2.36-3.91,5.47-3.91,5.47,0,0-.02.06-.13.06s-.13-.06-.13-.06c0,0-1.55-3.11-3.91-5.47C15.2.97,11.96,0,9.98,0s-3.98.49-5.48,1.48c-1.51.99-2.62,2.32-3.38,4-.74,1.68-1.11,3.51-1.11,5.53s.37,3.85,1.11,5.53c.77,1.68,1.88,3.01,3.38,4,1.51.99,3.51,1.48,5.48,1.48s5.22-.97,7.58-3.33c2.36-2.36,3.91-5.47,3.91-5.47,0,0,.02-.06.13-.06s.13.06.13.06c0,0,1.55,3.11,3.91,5.47,2.36,2.36,5.6,3.33,7.58,3.33s3.98-.49,5.48-1.48c1.51-.99,2.62-2.32,3.38-4,.74-1.68,1.11-3.51,1.11-5.53s-.37-3.85-1.11-5.53ZM15.94,17.98c-1.88,1.45-4.23,2.13-5.96,2.13s-3.19-.42-4.37-1.24c-1.16-.79-2.05-1.9-2.62-3.26-.57-1.38-.86-2.89-.86-4.6s.3-3.21.86-4.59c.57-1.36,1.46-2.47,2.62-3.26,1.19-.82,2.64-1.24,4.37-1.24s4.07.67,5.96,2.13c1.88,1.45,4.59,5.03,4.59,6.96s-2.7,5.51-4.59,6.96ZM40.22,15.61c-.57,1.36-1.46,2.47-2.62,3.26-1.19.82-2.64,1.24-4.37,1.24s-4.07-.67-5.96-2.13c-1.88-1.45-4.59-5.03-4.59-6.96s2.7-5.51,4.59-6.96c1.88-1.45,4.23-2.13,5.96-2.13s3.19.42,4.37,1.24c1.16.79,2.05,1.9,2.62,3.26.57,1.38.86,2.89.86,4.59s-.3,3.21-.86,4.6Z"/>
  </g>
</svg>