<?xml version="1.0" encoding="UTF-8"?>
<svg id="Layer_2" xmlns="http://www.w3.org/2000/svg" viewBox="0 0 110.4 24.2">
  <defs>
    <style>
      .cls-1 {
        fill: #fbfbfb;
      }
    </style>
  </defs>
  <g id="Layer_1-2" data-name="Layer_1">
    <g>
      <g>
        <polygon class="cls-1" points="0 14.85 9.94 14.85 9.94 13.58 1.4 13.58 1.4 7.87 9.33 7.87 9.33 6.6 1.4 6.6 1.4 1.52 9.94 1.52 9.94 .24 0 .24 0 14.85"/>
        <polygon class="cls-1" points="22.6 12.91 14.18 .24 12.48 .24 12.48 14.85 13.88 14.85 13.88 2.19 22.3 14.85 24.02 14.85 24.02 .24 22.6 .24 22.6 12.91"/>
        <polygon class="cls-1" points="27.29 14.85 37.23 14.85 37.23 13.58 28.69 13.58 28.69 7.87 36.63 7.87 36.63 6.6 28.69 6.6 28.69 1.52 37.23 1.52 37.23 .24 27.29 .24 27.29 14.85"/>
        <path class="cls-1" d="M49.44,8.74c-.32-.41-.76-.71-1.33-.88.82-.35,1.44-.83,1.86-1.45.41-.62.62-1.3.62-2.06,0-1.27-.42-2.27-1.25-3-.83-.73-2.05-1.1-3.66-1.1h-5.91v14.61h1.4v-6.43h4.59c.66,0,1.2.1,1.6.28.41.19.72.47.93.83.22.36.37.85.47,1.46l.57,3.86h1.46l-.73-4.59c-.09-.61-.3-1.12-.62-1.53ZM45.68,7.14h-4.5V1.52h4.5c1.15,0,2.02.25,2.6.75.58.5.87,1.19.87,2.07s-.29,1.55-.87,2.05c-.58.5-1.45.75-2.6.75Z"/>
        <path class="cls-1" d="M59.51,8.7h5.15c-.19,1.53-.71,2.76-1.56,3.68-.85.93-2.05,1.39-3.59,1.39-1.18,0-2.17-.28-2.97-.83-.81-.55-1.4-1.3-1.8-2.24-.39-.94-.59-1.99-.59-3.16s.2-2.21.59-3.16c.39-.94.99-1.69,1.8-2.24.8-.55,1.8-.83,2.97-.83,1.35,0,2.47.35,3.34,1.07.87.71,1.4,1.64,1.59,2.79h1.44c-.16-1-.52-1.89-1.07-2.67-.55-.78-1.27-1.39-2.17-1.84-.9-.45-1.95-.67-3.14-.67-1.46,0-2.71.34-3.73,1.01-1.03.68-1.8,1.59-2.32,2.74-.52,1.15-.78,2.41-.78,3.79s.26,2.65.78,3.79c.52,1.15,1.29,2.06,2.32,2.74,1.03.68,2.27,1.01,3.73,1.01,1.34,0,2.44-.29,3.32-.86.87-.57,1.54-1.38,2-2.42v3.04h1.26v-7.45h-6.57v1.3Z"/>
        <path class="cls-1" d="M73.63,7.54L68.78.24h-1.62l5.33,7.94c.28.42.43.91.43,1.41v5.26h1.4v-5.26c0-.5.15-1,.43-1.41L80.1.24h-1.62l-4.85,7.3Z"/>
        <path class="cls-1" d="M109.64,3.77c-.52-1.15-1.29-2.06-2.32-2.74-1.03-.68-2.4-1.01-3.75-1.01s-3.57.67-5.19,2.28c-1.62,1.62-2.68,3.74-2.68,3.74,0,0-.02.04-.09.04s-.09-.04-.09-.04c0,0-1.06-2.13-2.68-3.74C91.23.68,89.01.01,87.66.01s-2.72.34-3.75,1.01c-1.03.68-1.79,1.59-2.32,2.74-.51,1.15-.76,2.4-.76,3.79s.25,2.64.76,3.79c.52,1.15,1.29,2.06,2.32,2.74,1.03.68,2.4,1.01,3.75,1.01s3.57-.67,5.19-2.28c1.62-1.62,2.68-3.74,2.68-3.74,0,0,.02-.04.09-.04s.09.04.09.04c0,0,1.06,2.13,2.68,3.74,1.62,1.62,3.83,2.28,5.19,2.28s2.72-.34,3.75-1.01c1.03-.68,1.79-1.59,2.32-2.74.51-1.15.76-2.4.76-3.79s-.25-2.64-.76-3.79ZM91.74,12.32c-1.29,1-2.89,1.46-4.08,1.46s-2.18-.29-2.99-.85c-.79-.54-1.4-1.3-1.79-2.23-.39-.95-.59-1.98-.59-3.15s.2-2.2.59-3.15c.39-.93,1-1.69,1.79-2.23.81-.56,1.81-.85,2.99-.85s2.79.46,4.08,1.46c1.29,1,3.14,3.44,3.14,4.77s-1.85,3.77-3.14,4.77ZM108.36,10.7c-.39.93-1,1.69-1.79,2.23-.81.56-1.81.85-2.99.85s-2.79-.46-4.08-1.46c-1.29-1-3.14-3.44-3.14-4.77s1.85-3.77,3.14-4.77c1.29-1,2.89-1.46,4.08-1.46s2.18.29,2.99.85c.79.54,1.4,1.3,1.79,2.23.39.95.59,1.98.59,3.15s-.2,2.2-.59,3.15Z"/>
      </g>
      <g>
        <path class="cls-1" d="M22.87,19.8h.41v4.32h-.41v-4.32Z"/>
        <path class="cls-1" d="M24.7,19.8h.5l2.49,3.74v-3.74h.42v4.32h-.51l-2.49-3.74v3.74h-.41v-4.32Z"/>
        <path class="cls-1" d="M29.53,19.8h2.82v.38h-2.41v1.5h2.29v.38h-2.29v2.06h-.41v-4.32Z"/>
        <path class="cls-1" d="M33.5,19.8h.41v4.32h-.41v-4.32Z"/>
        <path class="cls-1" d="M35.33,19.8h.5l2.49,3.74v-3.74h.42v4.32h-.51l-2.49-3.74v3.74h-.41v-4.32Z"/>
        <path class="cls-1" d="M40.16,19.8h.41v4.32h-.41v-4.32Z"/>
        <path class="cls-1" d="M43.22,20.18h-1.51v-.38h3.44v.38h-1.51v3.94h-.43v-3.94Z"/>
        <path class="cls-1" d="M46.29,19.8h2.94v.38h-2.53v1.5h2.35v.38h-2.35v1.69h2.53v.38h-2.94v-4.32Z"/>
        <path class="cls-1" d="M52.28,19.8h1.63c.47,0,.82.11,1.06.32.24.21.36.49.36.83,0,.21-.05.39-.14.55-.1.16-.24.28-.44.37.25.08.44.21.57.39.13.18.19.4.19.65,0,.36-.12.66-.37.88s-.61.33-1.08.33h-1.78v-4.32ZM54.68,21.51c.17-.14.25-.32.25-.56s-.08-.42-.25-.56c-.17-.14-.42-.21-.75-.21h-1.23v1.54h1.23c.34,0,.59-.07.75-.21ZM54.84,23.53c.17-.14.26-.35.26-.61s-.09-.46-.26-.61c-.17-.14-.43-.22-.76-.22h-1.38v1.65h1.38c.34,0,.59-.07.76-.22Z"/>
        <path class="cls-1" d="M58.14,19.8h.46l1.77,4.32h-.44l-.51-1.27h-2.09l-.51,1.27h-.44l1.77-4.32ZM59.27,22.47l-.89-2.23-.89,2.23h1.79Z"/>
        <path class="cls-1" d="M62.71,20.18h-1.51v-.38h3.44v.38h-1.51v3.94h-.43v-3.94Z"/>
        <path class="cls-1" d="M67.01,20.18h-1.51v-.38h3.44v.38h-1.51v3.94h-.43v-3.94Z"/>
        <path class="cls-1" d="M70.08,19.8h2.94v.38h-2.53v1.5h2.35v.38h-2.35v1.69h2.53v.38h-2.94v-4.32Z"/>
        <path class="cls-1" d="M74.22,19.8h1.75c.48,0,.84.11,1.08.32.25.22.37.51.37.89,0,.22-.06.43-.18.61s-.3.33-.55.43c.17.05.3.14.39.26.09.12.15.27.18.45l.22,1.36h-.43l-.17-1.14c-.03-.18-.07-.32-.14-.43-.06-.11-.16-.19-.28-.25-.12-.06-.28-.08-.47-.08h-1.36v1.9h-.41v-4.32ZM76.74,21.62c.17-.15.26-.35.26-.61s-.09-.46-.26-.61c-.17-.15-.43-.22-.77-.22h-1.33v1.66h1.33c.34,0,.6-.07.77-.22Z"/>
        <path class="cls-1" d="M78.66,19.8h.41v4.32h-.41v-4.32Z"/>
        <path class="cls-1" d="M80.49,19.8h2.94v.38h-2.53v1.5h2.35v.38h-2.35v1.69h2.53v.38h-2.94v-4.32Z"/>
        <path class="cls-1" d="M85.29,24.04c-.26-.11-.46-.27-.61-.5-.15-.22-.24-.51-.25-.85h.43c.02.4.14.68.38.86.24.18.55.27.94.27.35,0,.63-.08.84-.23.21-.15.31-.36.31-.63,0-.15-.03-.28-.1-.38-.07-.1-.19-.19-.38-.27-.18-.08-.45-.16-.8-.23-.36-.07-.64-.16-.85-.26-.21-.1-.37-.23-.47-.39-.1-.16-.15-.36-.15-.6,0-.22.06-.41.19-.58.12-.17.3-.3.52-.39.22-.09.47-.14.75-.14.54,0,.94.13,1.22.39s.42.59.43,1.01h-.43c-.02-.34-.13-.59-.33-.76s-.5-.26-.89-.26c-.31,0-.56.07-.74.2-.18.13-.28.31-.28.53,0,.16.03.3.09.4.06.1.18.19.35.26.17.08.43.15.78.22.41.08.73.18.95.3.22.12.38.25.46.4.08.15.13.33.13.55,0,.24-.06.46-.19.65-.13.19-.31.33-.55.43-.24.1-.52.15-.84.15-.34,0-.63-.05-.89-.16Z"/>
      </g>
    </g>
  </g>
</svg>